<?xml version="1.0" encoding="utf-8"?>
<?xml-stylesheet type="text/xsl" href="rss1.xsl"?>
<rss version="2.0" xmlns:atom="http://www.w3.org/2005/Atom" xmlns:content="http://purl.org/rss/1.0/modules/content/" xmlns:dc="http://purl.org/dc/elements/1.1/" xmlns:media="http://search.yahoo.com/mrss/">
<channel>
 <title>Getty</title>
 <link>http://www.gettyimg.com/</link>
 <atom:link href="http://www.gettyimg.com/" rel="self" type="application/rss+xml" />

 
                <item>
                <title><![CDATA[【PRORES HD】Chainsmokers, Bebe Rexha - Call You Mine [Master ProRes 1080p] - 2019]]></title>
                <link><![CDATA[https://sharemania.us/threads/chainsmokers-bebe-rexha-call-you-mine-master-prores-1080p-2019.221342/]]></link>
                <description><![CDATA[<article>
<blockquote class="messageText SelectQuoteContainer ugc baseHtml">
<div style="text-align: center"><img src="https://i.ibb.co/nw3CkZc/Chainsmokers-Bebe-Rexha-Call-You-Mine-Master-Pro-Res-1080p-mov.png" class="bbCodeImage LbImage" alt="[​IMG]" data-url="https://i.ibb.co/nw3CkZc/Chainsmokers-Bebe-Rexha-Call-You-Mine-Master-Pro-Res-1080p-mov.png" style=""> <br>
<br>
<div class="ToggleTriggerAnchor bbCodeSpoilerContainer">
<button type="button" class="button bbCodeSpoilerButton ToggleTrigger Tooltip JsOnly" data-target="> .SpoilerTarget"><span>Spoiler: <span class="SpoilerTitle">Mediainfo</span></span></button>
<div class="SpoilerTarget bbCodeSpoilerText"><b>General</b><br>
Complete name : Chainsmokers, Bebe Rexha - Call You Mine [Master ProRes 1080p].mov<br>
Format : MPEG-4<br>
Format profile : QuickTime<br>
Codec ID : qt 2005.03 (qt )<br>
File size : 4.15 GiB<br>
Duration : 3 min 37 s<br>
Overall bit rate mode : Variable<br>
Overall bit rate : 164 Mb/s<br>
Encoded date : UTC 2019-05-23 21:57:14<br>
Tagged date : UTC 2019-05-23 21:59:01<br>
Writing library : Apple QuickTime<br>
TIM : 00:00:00:00<br>
TSC : 24000<br>
TSZ : 1001<br>
<br>
<b>Video</b><br>
ID : 1<br>
Format : ProRes<br>
Format version : Version 0<br>
Format profile : 422 HQ<br>
Codec ID : apch<br>
Duration : 3 min 37 s<br>
Bit rate mode : Variable<br>
Bit rate : 162 Mb/s<br>
Width : 1 920 pixels<br>
Height : 1 080 pixels<br>
Display aspect ratio : 16:9<br>
Frame rate mode : Constant<br>
Frame rate : 23.976 (24000/1001) FPS<br>
Color space : YUV<br>
Chroma subsampling : 4:2:2<br>
Scan type : Progressive<br>
Bits/(Pixel*Frame) : 3.265<br>
Stream size : 4.11 GiB (99%)<br>
Writing library : Apple<br>
Language : English<br>
Encoded date : UTC 2019-05-23 21:57:14<br>
Tagged date : UTC 2019-05-23 21:57:14<br>
Color primaries : BT.709<br>
Transfer characteristics : BT.709<br>
Matrix coefficients : BT.709<br>
Menus : 0<br>
<br>
<b>Audio</b><br>
ID : 2<br>
Format : PCM<br>
Format settings : Little / Signed<br>
Codec ID : sowt<br>
Duration : 3 min 37 s<br>
Bit rate mode : Constant<br>
Bit rate : 1 536 kb/s<br>
Channel(s) : 2 channels<br>
Channel layout : L R<br>
Sampling rate : 48.0 kHz<br>
Bit depth : 16 bits<br>
Stream size : 39.8 MiB (1%)<br>
Language : English<br>
Encoded date : UTC 2019-05-23 21:57:14<br>
Tagged date : UTC 2019-05-23 21:57:14<br>
Menus : 0<br>
<br>
<b>Other</b><br>
ID : 3<br>
Type : Time code<br>
Format : QuickTime TC<br>
Duration : 3 min 37 s<br>
Frame rate : 23.976 (24000/1001) FPS<br>
Time code of first frame : 00:00:00:00<br>
Time code of last frame : 00:03:37:09<br>
Time code, stripped : Yes<br>
Language : English<br>
Encoded date : UTC 2019-05-23 21:57:14<br>
Tagged date : UTC 2019-05-23 21:57:14</div>
</div><br>
<div class="bbCodeBlock bbCodeVfcHH HiddenContent">
<div class="attribution type">Hidden Content:</div>
<blockquote>You must reply before you can see the hidden data contained here.</blockquote>
</div></div>
<div class="messageTextEndMarker">&nbsp;</div>
</blockquote>
</article>]]></description>
                <author><![CDATA[von_3649]]></author>
                </item>

                </channel></rss>